<?xml version="1.0" encoding="UTF-8"?>
<!DOCTYPE svg PUBLIC "-//W3C//DTD SVG 1.1//EN" "http://www.w3.org/Graphics/SVG/1.1/DTD/svg11.dtd">
<!-- Creator: CorelDRAW 2019 (64-Bit) -->
<svg xmlns="http://www.w3.org/2000/svg" xml:space="preserve" width="2343px" height="2160px" version="1.1" style="shape-rendering:geometricPrecision; text-rendering:geometricPrecision; image-rendering:optimizeQuality; fill-rule:evenodd; clip-rule:evenodd"
viewBox="0 0 2343 2159.56"
 xmlns:xlink="http://www.w3.org/1999/xlink"
 xmlns:xodm="http://www.corel.com/coreldraw/odm/2003">
 <defs>
  <style type="text/css">
   <![CDATA[
    .fil0 {fill:#E9232A;fill-rule:nonzero}
   ]]>
  </style>
 </defs>
 <g id="Layer_x0020_1">
  <metadata id="CorelCorpID_0Corel-Layer"/>
  <path class="fil0" d="M78.06 2117.38c-44.55,-23.21 -79.65,-43.54 -78,-45.19 5.69,-5.69 218.86,-51.18 367.72,-78.46 322.12,-59.05 705.1,-106.31 1086.57,-134.09 157.1,-11.44 725.45,-11.82 824.02,-0.55l64.63 7.39 -72.85 1.13c-129.32,2.01 -425.89,22.76 -658.26,46.06 -439.84,44.1 -928.81,125.42 -1282.55,213.28 -72.25,17.94 -140.11,32.61 -150.82,32.61 -10.7,0 -55.91,-18.98 -100.46,-42.18zm614.93 -442.71l0 0c-6.61,-18.26 21.04,-26.43 33.1,-31.62 54.15,-23.22 92.26,-61.06 105.01,-104.28 6.1,-20.68 24.69,-137.58 41.3,-259.77 16.61,-122.19 31.54,-216.7 33.17,-222.25 1.21,-4.1 4.48,-18.68 22.01,-20.25 44.74,-0.43 77.96,0.14 123.81,0.14 25.33,-2.43 20.35,25.28 18.36,43.04 -1.99,22.42 -8.02,65.72 -15.06,118.53 -8.57,64.43 -21.38,160.72 -28.47,213.98 -15.93,119.71 -24.76,156.57 -52.3,218.23 -32.78,73.37 -82.88,116 -173.7,146.33 -18.34,5.75 -70.94,23.64 -76.66,7.74 -11.87,-38.06 -20.3,-71.14 -30.57,-109.82zm1042.96 -40.14l0 0c-60.52,-24.43 -57.67,-118.79 5.82,-157.5 40.18,-24.5 96.63,-20.34 125.64,8.67 71.47,71.48 -33.63,188.3 -131.46,148.83zm-457.46 -56.37l0 0c-177.94,-30.39 -176.75,-242.55 -136.89,-363.79 49.92,-140.33 171.56,-181.1 271.54,-184.66 84.37,-2.89 201.34,12.8 230.7,30.95 8.12,5.01 4.3,53.65 -18.35,234 -15.73,125.22 -32.93,232.9 -38.23,239.28 -28.17,33.95 -216.93,60.98 -308.77,44.22zm155.23 -167.9l0 0c19.1,-71.07 27.16,-135.23 40.82,-210.2 -1.7,-25.84 -45.31,-26.02 -56.41,-26.08 -57.77,0 -91.89,32.43 -109.98,104.53 -24.8,98.89 1.1,153.98 72.4,153.98 22.54,-2.09 46.06,-0.84 53.17,-22.23zm-1300.49 110.65l0 0c48.64,-118.82 244,-544.29 290.89,-632.4 8.86,-21.97 32.2,-26.3 48.18,-27.84 45.95,-2.1 85.67,-1.54 126.02,-1.25 41.58,0.37 42.19,14.96 47.54,45.86 6.54,30.79 87.66,515.11 106.02,631.37 2.34,19.3 7.07,25.31 -18.06,25.35 -34.82,0.1 -118.63,4.63 -147.07,2.48 -9.09,-1.18 -15.01,-7.14 -16.42,-13.85 -2.6,-12.47 -5.53,-33.87 -7.53,-56.19l-5.18 -57.91 -104.38 0 -104.39 0 -22.82 55.69c-8.12,19.8 -16.99,39.34 -23.6,52.31 -4.63,11.89 -11.53,17.37 -21.86,19.62 -25.55,-0.22 -116.11,3.14 -150.16,0.14 -16.84,-7.74 -1.61,-32.56 2.82,-43.38zm405.99 -245.64l0 0c-2.96,-31.29 -22.93,-192.66 -27.62,-216.51 -1.23,-2.56 -1.81,-1.72 -3.08,-0.21 -12.33,18.51 -79.06,182.3 -90.42,220.34 -1.37,5.24 2.04,7.17 7,6.74 16.93,-1.16 86.11,-2.45 107.15,-3.26 6,-0.46 6.59,-2.56 6.97,-7.1zm1204.76 78.46l0 0c2.7,-21.11 8.61,-78.36 13.14,-127.24 4.53,-48.88 11.78,-125.22 16.11,-169.65 3.29,-33.72 6.19,-66.45 7.44,-83.67 2.53,-15.44 21.2,-17.26 33.46,-17.38 40.89,0.43 79.39,-1.99 116.17,1.4 17.38,1.78 24.64,5.62 24.71,15.96 -16.58,85.06 -76.17,378.55 -80.75,396.73 -3.96,15.67 -5.56,20.29 -29.48,21.65 -29.31,-0.47 -53.75,1.06 -83.48,0.91 -17.05,-0.22 -21.61,-5.22 -17.32,-38.71zm-825.09 -436.03l0 0c0,-51.85 33.36,-91.37 75.14,-108 36.1,-12.65 76.56,-12.6 98.1,12.01 38.23,44.44 13.14,110.1 -31.51,144.31 -57.22,39.36 -140.8,16.1 -141.73,-48.32zm1025.06 -109.28l0 0c-12.49,-27.77 -52.58,-115.38 -89.08,-194.69 -36.5,-79.31 -64.44,-149.22 -62.08,-155.37 2.36,-6.14 43.04,-56.68 90.41,-112.29l77.09 -90.54c5.04,-6.09 10.83,-13.56 17.82,-13.65 46.47,0.23 94.61,3.01 138.95,2.57 33.02,-0.28 49.64,-2.42 25.14,22.44 -15.68,19.42 -46.6,54.97 -81.95,93.98 -51.1,56.37 -92.9,104 -92.9,105.85 0,1.84 38.31,86.02 85.14,187.07 36.8,79.39 67.19,150.4 77.43,180.06 4.38,10.07 0.54,18.69 -8.82,21.04 -12.39,2.88 -34.7,4.02 -73.06,4.02l-57.46 0c-14.03,1.47 -24.36,-0.99 -29.76,-13l-16.87 -37.49zm-1719.64 -59.11l0 0c-51.71,-25.77 -76.15,-58.38 -80.61,-107.53 -2.67,-29.46 45.53,-425.47 66.87,-551.39 5.21,-29.57 7.47,-31.26 35.82,-31.26l55.78 0c29.3,0 55.97,-0.49 72.75,0.46 22.92,0.34 18.73,14.78 16.98,32.08 -3.94,38.61 -16.22,122.26 -31.63,229.97 -27.35,191.1 -34.31,258.53 -27.77,268.93 7.66,12.14 27.1,14.14 155.93,16.07l115.24 1.73c27.44,-1.53 33.12,5.21 30.41,29.85 -6.72,40.8 -10.4,73.3 -17.09,109.85 -4.59,22.81 -19.31,16.84 -42.24,18.24l-134.72 1.87c-172.75,2.17 -173.67,2.08 -215.72,-18.87zm1328.81 14.68l0 0c-1.75,-3.33 3.07,-49.68 10.71,-103 7.63,-53.32 23.58,-167.84 35.43,-254.48 33.66,-245.97 44.71,-320.08 49.4,-348.43 4.95,-33.09 4.98,-31.26 37.4,-31.26l51.41 0c20.06,0 35.72,-0.26 47.81,0.13 46.17,1.5 40.29,-2.48 28.64,69.02 -4.4,27.02 -19.06,145.94 -32.58,245.91 -34.04,251.76 -56.37,406.13 -60.46,418.07 -3.84,11.19 -162.02,15 -167.76,4.04zm-878.35 -19.16l0 0c21.44,-179.91 41.92,-315.95 65.74,-483.37 1.78,-20.04 21.48,-22.36 44.5,-22.39 26.18,-0.02 52.79,-0.37 77.72,0.46 48.29,0.16 60.99,6.63 55.98,38.94 -21.39,157.17 -47.83,297.44 -75.6,457.24 -5.19,27.06 -11.52,26.26 -37.38,26.26 -30.1,0.1 -83.52,1.11 -110.81,0.35 -15.97,-2.82 -19.6,-4.63 -20.15,-17.49zm340.84 -402.76l0 0c13.25,-69.57 22.43,-80.43 41.67,-93.04 23.75,-15.55 199.17,-31.76 259.73,-24 8.46,1.21 16.51,2.73 24.17,4.56 177.44,42.14 149.86,243.05 138.32,335.48 -12.16,88.3 -24.09,168.73 -26.52,178.72 -4.23,17.4 -8.01,18.18 -88.37,18.18 -26.99,0 -41.1,-0.93 -56.46,-2.37 -24.82,-1.62 -27.12,-7.2 -24.64,-25.25 9.04,-73.77 21.24,-137.39 30.33,-206.3 12.24,-94.04 8.98,-186.88 -107.7,-166.92 -20,5.07 -25.47,6.68 -28.23,26.62 -14.56,92.89 -27.35,188.85 -40.67,279.71 -2.93,21.68 -7.01,44.34 -11.2,64.43 -1.09,5.11 -1.68,9.69 -2.61,13.08 -1.19,4.01 -3.95,8.17 -6.59,4.05 -18.75,-34.15 -106.97,-28.46 -143.78,-3.4 -18.47,12.84 -22.27,19.74 -14.73,-19.39 1.33,-8.3 2.62,-16.59 3.88,-24.87 18.27,-119.87 30.58,-237.79 53.4,-359.29zm-251.88 -205.89l0 0c-19.71,-67.22 38.97,-133.66 104.68,-135.97 89.05,-5.95 113.63,116.52 22.53,172.07 -52.76,24.14 -108.22,19.02 -127.21,-36.1z"/>
 </g>
</svg>
